<mxfile host="app.diagrams.net" modified="2024-03-24T08:44:24.725Z" agent="Mozilla/5.0 (Windows NT 10.0; Win64; x64) AppleWebKit/537.36 (KHTML, like Gecko) Chrome/117.0.0.0 Safari/537.36 Edg/117.0.2045.43" etag="MyTDOr0iObIkYIIfGlyq" version="23.1.2" type="github">
  <diagram name="Página-1" id="yMAxkzrMtRHVNvODZ3IW">
    <mxGraphModel dx="1701" dy="948" grid="1" gridSize="10" guides="1" tooltips="1" connect="1" arrows="1" fold="1" page="1" pageScale="1" pageWidth="827" pageHeight="1169" math="0" shadow="0">
      <root>
        <mxCell id="0" />
        <mxCell id="1" parent="0" />
        <mxCell id="h0MfIRdT8NwpfuoZhXy0-1" value="Cliente" style="shape=umlActor;verticalLabelPosition=bottom;verticalAlign=top;html=1;outlineConnect=0;" vertex="1" parent="1">
          <mxGeometry x="160" y="385" width="30" height="60" as="geometry" />
        </mxCell>
        <mxCell id="h0MfIRdT8NwpfuoZhXy0-2" value="Acceso" style="ellipse;whiteSpace=wrap;html=1;" vertex="1" parent="1">
          <mxGeometry x="414" y="280" width="90" height="40" as="geometry" />
        </mxCell>
        <mxCell id="h0MfIRdT8NwpfuoZhXy0-3" value="Salida" style="ellipse;whiteSpace=wrap;html=1;" vertex="1" parent="1">
          <mxGeometry x="414" y="335" width="90" height="40" as="geometry" />
        </mxCell>
        <mxCell id="h0MfIRdT8NwpfuoZhXy0-4" value="Pago" style="ellipse;whiteSpace=wrap;html=1;" vertex="1" parent="1">
          <mxGeometry x="414" y="395" width="90" height="40" as="geometry" />
        </mxCell>
        <mxCell id="h0MfIRdT8NwpfuoZhXy0-5" value="Cancelación Pago" style="ellipse;whiteSpace=wrap;html=1;" vertex="1" parent="1">
          <mxGeometry x="414" y="455" width="90" height="40" as="geometry" />
        </mxCell>
        <mxCell id="h0MfIRdT8NwpfuoZhXy0-6" value="Aceptación Normas Uso" style="ellipse;whiteSpace=wrap;html=1;" vertex="1" parent="1">
          <mxGeometry x="414" y="515" width="90" height="40" as="geometry" />
        </mxCell>
        <mxCell id="h0MfIRdT8NwpfuoZhXy0-7" value="" style="endArrow=classic;html=1;rounded=0;exitX=0.75;exitY=0.1;exitDx=0;exitDy=0;exitPerimeter=0;entryX=0;entryY=0.5;entryDx=0;entryDy=0;" edge="1" parent="1" source="h0MfIRdT8NwpfuoZhXy0-1" target="h0MfIRdT8NwpfuoZhXy0-2">
          <mxGeometry width="50" height="50" relative="1" as="geometry">
            <mxPoint x="390" y="510" as="sourcePoint" />
            <mxPoint x="440" y="460" as="targetPoint" />
          </mxGeometry>
        </mxCell>
        <mxCell id="h0MfIRdT8NwpfuoZhXy0-8" value="" style="endArrow=classic;html=1;rounded=0;exitX=0.75;exitY=0.1;exitDx=0;exitDy=0;exitPerimeter=0;entryX=0;entryY=0.5;entryDx=0;entryDy=0;" edge="1" parent="1" target="h0MfIRdT8NwpfuoZhXy0-3">
          <mxGeometry width="50" height="50" relative="1" as="geometry">
            <mxPoint x="193" y="401" as="sourcePoint" />
            <mxPoint x="424" y="310" as="targetPoint" />
          </mxGeometry>
        </mxCell>
        <mxCell id="h0MfIRdT8NwpfuoZhXy0-9" value="" style="endArrow=classic;html=1;rounded=0;exitX=0.75;exitY=0.1;exitDx=0;exitDy=0;exitPerimeter=0;entryX=0;entryY=0.5;entryDx=0;entryDy=0;" edge="1" parent="1" target="h0MfIRdT8NwpfuoZhXy0-4">
          <mxGeometry width="50" height="50" relative="1" as="geometry">
            <mxPoint x="203" y="411" as="sourcePoint" />
            <mxPoint x="424" y="365" as="targetPoint" />
          </mxGeometry>
        </mxCell>
        <mxCell id="h0MfIRdT8NwpfuoZhXy0-10" value="" style="endArrow=classic;html=1;rounded=0;entryX=0;entryY=0.5;entryDx=0;entryDy=0;" edge="1" parent="1" target="h0MfIRdT8NwpfuoZhXy0-5">
          <mxGeometry width="50" height="50" relative="1" as="geometry">
            <mxPoint x="200" y="421" as="sourcePoint" />
            <mxPoint x="424" y="425" as="targetPoint" />
          </mxGeometry>
        </mxCell>
        <mxCell id="h0MfIRdT8NwpfuoZhXy0-11" value="" style="endArrow=classic;html=1;rounded=0;entryX=0;entryY=0.5;entryDx=0;entryDy=0;" edge="1" parent="1" target="h0MfIRdT8NwpfuoZhXy0-6">
          <mxGeometry width="50" height="50" relative="1" as="geometry">
            <mxPoint x="200" y="430" as="sourcePoint" />
            <mxPoint x="424" y="485" as="targetPoint" />
          </mxGeometry>
        </mxCell>
      </root>
    </mxGraphModel>
  </diagram>
</mxfile>
